<?xml version="1.0" standalone="no"?>
<!DOCTYPE svg PUBLIC "-//W3C//DTD SVG 20010904//EN"
 "http://www.w3.org/TR/2001/REC-SVG-20010904/DTD/svg10.dtd">
<svg version="1.0" xmlns="http://www.w3.org/2000/svg"
 width="507.000000pt" height="492.000000pt" viewBox="0 0 507.000000 492.000000"
 preserveAspectRatio="xMidYMid meet">

<g transform="translate(0.000000,492.000000) scale(0.100000,-0.100000)"
fill="#000000" stroke="none">
<path d="M2445 4803 c-166 -51 -406 -134 -470 -163 -22 -9 -78 -34 -125 -55
-487 -216 -855 -468 -1220 -834 -75 -75 -158 -163 -185 -196 -27 -33 -52 -62
-55 -65 -17 -17 -124 -155 -154 -201 -20 -30 -52 -76 -72 -104 l-36 -50 5
-270 c3 -148 10 -299 16 -335 5 -36 15 -105 21 -155 39 -313 151 -747 251
-972 11 -24 19 -46 19 -49 0 -13 106 -245 153 -334 87 -166 122 -227 199 -348
106 -166 211 -312 243 -334 15 -11 359 -118 379 -118 6 0 40 -9 76 -19 36 -11
92 -25 125 -31 33 -7 89 -18 125 -26 36 -7 101 -18 145 -24 44 -6 100 -15 125
-20 121 -23 663 -34 875 -17 142 11 363 45 505 77 25 6 65 14 90 19 143 29
465 129 516 160 17 10 56 53 88 95 58 78 208 304 226 341 5 11 25 47 45 80 42
72 171 327 181 358 4 12 20 51 37 87 38 84 41 93 70 170 45 123 59 165 89 270
59 206 67 236 83 319 8 46 18 87 20 91 4 7 10 40 37 220 20 139 28 244 34 487
7 266 5 285 -38 343 -11 14 -56 75 -100 135 -254 345 -599 676 -930 892 -56
36 -133 86 -172 111 -140 90 -514 270 -716 345 -82 31 -287 99 -361 121 -66
19 -78 19 -144 -1z m-164 -1007 c141 -43 296 -49 414 -16 123 35 118 35 136
-2 34 -68 60 -130 65 -156 5 -23 1 -29 -28 -43 -18 -8 -106 -53 -195 -100
l-162 -84 -63 33 c-77 39 -230 122 -278 149 -41 24 -43 44 -10 119 12 27 28
64 36 82 15 36 22 38 85 18z m-121 -299 c-1 -7 -21 -34 -45 -60 -36 -39 -50
-48 -72 -45 -28 3 -27 4 36 66 58 57 82 69 81 39z m779 -26 c51 -26 53 -29 34
-40 -34 -18 -57 -13 -102 19 -73 54 -24 69 68 21z m-753 -67 c-20 -21 -39 -35
-43 -31 -4 4 11 25 33 48 21 22 40 35 42 30 2 -5 -13 -27 -32 -47z m588 37 c3
-5 -54 -39 -128 -77 -153 -77 -124 -78 -274 10 -59 35 -80 52 -73 59 12 12 42
-1 149 -63 29 -16 58 -30 65 -30 7 0 59 25 117 55 105 54 134 63 144 46z
m-412 -133 c182 -117 178 -114 178 -159 0 -27 -5 -42 -16 -46 -21 -8 -36 15
-30 47 5 30 0 40 -35 62 -26 16 -27 16 -32 -2 -6 -22 -37 -26 -68 -10 -27 15
-24 39 9 51 19 8 23 13 12 17 -8 2 -28 14 -45 26 -16 12 -45 29 -65 38 -32 16
-36 16 -47 1 -7 -9 -16 -14 -19 -10 -6 6 27 56 38 57 4 0 58 -33 120 -72z
m458 -13 c0 -13 -4 -34 -9 -47 -5 -13 -14 -41 -21 -63 -20 -64 -61 -143 -78
-150 -33 -12 -37 14 -10 68 41 80 58 123 58 146 0 33 22 71 42 71 12 0 18 -7
18 -25z m-130 -75 c0 -21 -27 -40 -47 -33 -19 7 -16 30 5 42 27 16 42 13 42
-9z m-1195 -27 c3 -10 9 -48 12 -84 7 -79 -7 -128 -51 -184 -52 -65 -70 -113
-70 -180 1 -55 22 -210 45 -328 16 -85 9 -286 -20 -576 -13 -128 28 -240 129
-354 49 -55 59 -72 49 -83 -20 -24 -64 -16 -100 19 -58 54 -136 160 -162 217
-14 30 -34 90 -45 133 -18 71 -60 147 -81 147 -21 0 -42 83 -35 141 6 56 5 59
-20 70 -42 20 -52 74 -29 171 15 64 15 68 -6 112 -26 57 -27 112 -1 151 16 24
20 47 20 113 l0 82 39 28 c41 28 61 59 61 93 0 31 15 53 88 126 73 72 152 172
152 191 0 18 17 14 25 -5z m2203 -178 c87 -88 102 -110 102 -152 0 -21 12 -38
47 -69 l48 -42 0 -78 c0 -57 5 -88 18 -112 25 -46 24 -99 -2 -155 -21 -43 -22
-50 -10 -80 8 -17 14 -62 14 -100 0 -64 -2 -69 -33 -93 -31 -25 -32 -27 -26
-79 9 -73 1 -96 -51 -155 -42 -47 -56 -78 -71 -161 -16 -79 -84 -196 -170
-289 -52 -55 -60 -61 -93 -58 -56 5 -52 30 17 102 63 66 102 138 121 224 11
53 6 164 -19 383 -15 132 -12 217 14 382 47 291 45 330 -20 418 -19 26 -41 63
-49 83 -17 41 -20 161 -5 201 l10 27 40 -58 c22 -33 75 -95 118 -139z m-1398
133 c12 -33 15 -40 58 -115 19 -35 21 -43 8 -43 -24 0 -87 102 -100 163 -9 40
18 35 34 -5z m258 -140 c3 -15 -4 -18 -42 -18 -48 0 -59 11 -28 29 25 16 66 9
70 -11z m282 -46 c64 -31 147 -96 208 -161 47 -50 123 -199 141 -273 19 -81
14 -250 -10 -321 -33 -99 -76 -176 -133 -241 l-52 -61 19 -105 c17 -95 17
-105 3 -116 -12 -8 -156 -12 -516 -13 l-500 -2 0 48 c0 26 9 79 20 117 l19 68
-49 60 c-85 106 -117 178 -145 326 -46 242 93 516 329 653 76 44 138 56 144
28 2 -12 -16 -26 -60 -49 -83 -43 -93 -51 -158 -114 -144 -142 -207 -351 -166
-549 20 -98 39 -140 88 -194 47 -53 59 -38 22 30 -45 83 -58 148 -58 287 0
159 21 235 92 329 40 54 47 30 50 -190 4 -189 9 -219 38 -219 21 0 27 36 28
182 1 75 5 140 9 144 3 4 13 4 22 1 12 -5 15 -29 15 -142 0 -130 -12 -215 -33
-242 -15 -21 -72 -16 -93 8 -17 19 -19 40 -22 198 -1 97 -5 182 -8 190 -9 25
-42 -53 -60 -140 -19 -94 -15 -186 11 -289 17 -67 44 -115 52 -93 3 9 105 12
422 13 458 0 436 4 447 -61 3 -19 7 -40 9 -46 7 -20 29 -5 49 32 11 19 22 35
26 35 8 0 38 73 61 145 7 23 12 85 12 145 -2 116 -28 218 -80 307 -56 97 -242
254 -300 253 -14 0 -18 42 -6 54 10 10 49 -1 113 -32z m177 -363 c13 -25 17
-72 7 -82 -9 -9 -34 4 -34 17 0 18 -21 35 -36 29 -28 -11 -16 -57 22 -82 50
-35 67 -72 62 -141 -5 -76 -28 -110 -72 -110 -39 0 -50 10 -66 67 -21 70 12
99 37 33 14 -37 39 -39 55 -5 14 32 -1 62 -45 90 -44 28 -64 99 -44 158 22 68
85 82 114 26z m-703 22 c3 -4 16 -50 30 -102 13 -52 27 -87 30 -79 3 8 7 53 8
100 3 72 6 85 21 88 16 3 17 -11 17 -197 0 -192 -1 -201 -19 -201 -20 0 -23 5
-57 132 -23 83 -32 68 -33 -50 -1 -74 -3 -83 -18 -80 -16 3 -18 21 -21 188 -1
101 0 190 2 197 6 15 32 17 40 4z m178 -172 c6 -191 4 -219 -17 -219 -22 0
-26 29 -24 204 1 157 7 196 29 196 4 0 9 -82 12 -181z m75 169 c5 -7 17 -38
26 -68 9 -30 23 -73 31 -95 l15 -40 3 105 c2 85 6 105 18 105 13 0 15 -28 17
-186 1 -102 -2 -191 -7 -199 -12 -20 -37 -5 -44 27 -20 79 -38 133 -46 133 -5
0 -10 -37 -12 -82 -2 -66 -6 -83 -18 -83 -13 0 -15 28 -18 185 -1 101 0 190 2
197 7 16 21 17 33 1z m187 -10 c3 -13 6 -84 6 -159 0 -117 2 -138 16 -143 37
-14 43 10 46 168 3 143 4 151 23 151 19 0 20 -6 19 -157 -2 -131 -5 -164 -20
-195 -16 -32 -24 -38 -56 -41 -59 -5 -71 29 -76 216 -2 83 -2 159 2 167 8 23
33 18 40 -7z m-167 -1174 c-3 -3 -12 -4 -19 -1 -8 3 -5 6 6 6 11 1 17 -2 13
-5z m110 0 c-3 -3 -12 -4 -19 -1 -8 3 -5 6 6 6 11 1 17 -2 13 -5z m32 -40 c3
-16 1 -17 -13 -5 -19 16 -21 34 -3 29 6 -3 14 -13 16 -24z m-194 -3 c3 -5 1
-12 -3 -15 -5 -3 -7 -17 -4 -31 3 -18 0 -25 -11 -25 -9 0 -19 5 -22 10 -11 18
-27 10 -22 -11 5 -17 3 -18 -9 -8 -20 17 -13 44 11 44 13 0 21 8 23 23 3 22
26 30 37 13z m125 -40 c0 -6 -4 -13 -10 -16 -5 -3 -10 -18 -10 -32 0 -21 -3
-23 -14 -13 -8 6 -13 17 -10 25 3 7 0 16 -5 20 -6 3 -9 11 -6 16 8 12 55 12
55 0z m75 -1 c3 -5 1 -10 -4 -10 -6 0 -11 5 -11 10 0 6 2 10 4 10 3 0 8 -4 11
-10z m-975 -40 c21 -40 -6 -72 -52 -62 -21 4 -25 51 -6 70 18 18 46 14 58 -8z
m1030 3 c0 -10 -11 -23 -25 -30 -23 -10 -25 -9 -25 12 0 21 10 29 43 34 4 0 7
-7 7 -16z m534 1 c9 -8 16 -22 16 -29 0 -15 -27 -45 -40 -45 -4 0 -18 8 -31
19 -22 18 -22 19 -6 45 20 30 39 33 61 10z m-792 -36 c-9 -9 -15 -9 -24 0 -9
9 -7 12 12 12 19 0 21 -3 12 -12z m-92 -14 c0 -8 -4 -12 -10 -9 -5 3 -10 10
-10 16 0 5 5 9 10 9 6 0 10 -7 10 -16z m-33 -140 c-3 -3 -12 -4 -19 -1 -8 3
-5 6 6 6 11 1 17 -2 13 -5z m103 -55 c0 -11 -4 -18 -10 -14 -5 3 -7 12 -3 20
7 21 13 19 13 -6z m120 -11 c0 -5 -7 -8 -15 -8 -17 0 -18 2 -9 25 5 13 8 14
15 3 5 -7 9 -16 9 -20z m-70 -38 c0 -5 -4 -10 -10 -10 -5 0 -10 5 -10 10 0 6
5 10 10 10 6 0 10 -4 10 -10z m-270 -10 c0 -5 -2 -10 -4 -10 -3 0 -8 5 -11 10
-3 6 -1 10 4 10 6 0 11 -4 11 -10z m415 0 c3 -5 -1 -10 -10 -10 -9 0 -13 5
-10 10 3 6 8 10 10 10 2 0 7 -4 10 -10z m-355 -20 c0 -5 15 -14 33 -19 17 -5
25 -10 16 -10 -24 -1 -79 20 -79 30 0 5 7 9 15 9 8 0 15 -4 15 -10z m360 -16
c0 -8 -5 -12 -10 -9 -6 4 -8 11 -5 16 9 14 15 11 15 -7z m-136 -39 c-39 -33
-104 -52 -127 -38 -7 5 -12 17 -13 28 0 17 5 20 33 17 18 -2 33 -9 33 -14 0
-18 52 2 72 28 11 13 24 21 30 18 6 -4 -6 -21 -28 -39z m86 -5 c0 -5 -5 -10
-11 -10 -5 0 -7 5 -4 10 3 6 8 10 11 10 2 0 4 -4 4 -10z m-247 -7 c-7 -2 -21
-2 -30 0 -10 3 -4 5 12 5 17 0 24 -2 18 -5z m-633 -153 c0 -5 -4 -10 -10 -10
-5 0 -10 5 -10 10 0 6 5 10 10 10 6 0 10 -4 10 -10z m-773 -136 c-3 -3 -12 -4
-19 -1 -8 3 -5 6 6 6 11 1 17 -2 13 -5z"/>
<path d="M2210 3705 c-17 -36 -30 -73 -28 -82 2 -9 41 -36 88 -61 207 -109
233 -122 244 -122 15 0 308 148 324 164 10 10 7 24 -12 71 -14 33 -27 68 -30
78 -7 21 -30 18 -121 -11 -70 -24 -259 -23 -340 1 -33 10 -68 20 -77 23 -12 4
-24 -11 -48 -61z m377 -48 c9 -8 18 -35 20 -60 5 -39 2 -49 -20 -71 -38 -38
-98 -36 -138 3 -64 65 -10 158 85 147 21 -2 45 -11 53 -19z"/>
<path d="M2475 3616 c-25 -37 -5 -76 38 -76 40 0 57 15 57 52 0 49 -68 66 -95
24z"/>
<path d="M1298 2909 c-34 -19 -12 -89 27 -89 20 0 45 28 45 50 0 21 -25 50
-43 50 -7 0 -20 -5 -29 -11z"/>
<path d="M1183 2738 c-28 -13 -30 -49 -5 -71 35 -32 72 -14 72 35 0 17 -7 31
-19 38 -23 12 -20 12 -48 -2z"/>
<path d="M1148 2519 c-11 -6 -18 -22 -18 -39 0 -35 25 -51 58 -39 16 6 22 16
22 37 0 45 -26 62 -62 41z"/>
<path d="M1152 2268 c-28 -28 -7 -78 33 -78 12 0 26 5 33 12 7 7 12 21 12 33
0 12 -5 26 -12 33 -7 7 -21 12 -33 12 -12 0 -26 -5 -33 -12z"/>
<path d="M1212 2038 c-16 -16 -15 -53 2 -67 8 -7 27 -11 43 -9 24 3 28 8 31
37 2 20 -2 37 -10 42 -19 13 -52 11 -66 -3z"/>
<path d="M3672 2904 c-29 -20 -28 -50 2 -69 33 -22 66 -5 66 33 0 49 -29 64
-68 36z"/>
<path d="M3798 2742 c-23 -5 -33 -44 -18 -71 12 -23 31 -26 59 -11 54 28 20
95 -41 82z"/>
<path d="M3822 2518 c-28 -28 -7 -78 33 -78 27 0 45 18 45 47 0 35 -53 56 -78
31z"/>
<path d="M3798 2255 c-9 -21 -8 -28 7 -45 23 -26 50 -25 69 1 11 17 12 27 4
45 -16 34 -64 33 -80 -1z"/>
<path d="M3738 2024 c-17 -36 0 -59 43 -59 31 0 34 3 37 34 4 37 -9 51 -46 51
-15 0 -27 -9 -34 -26z"/>
<path d="M2394 2072 c-265 -2 -274 -4 -257 -47 5 -14 29 -15 169 -13 174 2
188 -1 182 -43 l-3 -24 -185 -5 -184 -5 -12 -40 c-6 -23 -15 -69 -19 -103 l-7
-62 201 0 c182 0 231 6 185 24 -9 3 -42 6 -74 6 -56 0 -59 1 -62 28 -4 29 10
72 27 85 10 7 102 1 136 -9 9 -2 45 0 81 5 35 5 75 7 89 4 29 -5 49 -48 42
-87 -5 -25 -9 -26 -67 -27 -67 0 -112 -13 -86 -23 8 -3 102 -7 207 -8 139 -2
194 0 197 9 10 26 -51 323 -68 328 -21 7 -243 10 -492 7z m361 -52 c3 -11 15
-20 25 -20 24 0 33 -25 14 -41 -8 -7 -14 -24 -12 -37 2 -14 -3 -27 -9 -29 -7
-3 -13 1 -13 7 0 9 -11 10 -35 6 -34 -7 -35 -6 -35 24 0 16 -4 30 -10 30 -5 0
-10 9 -10 20 0 13 7 20 20 20 10 0 24 9 30 20 6 11 15 20 20 20 5 0 12 -9 15
-20z"/>
</g>
</svg>
